# xmcd
#
# Track frame offsets:
#	180
#	12526
#	27970
#	45476
#	64112
#	80287
#	93435
#	108007
#	121458
#	138743
#
# Disc length: 2096 seconds
#
# Revision: 0
# Processed by: cddbd v1.5.2PL0 Copyright (c) Steve Scherf et al.
# Submitted via: EasyCDDAExtractor 16.0.6.1
#
DISCID=7d082e0a
DTITLE=Los Leoncitos - I Wanna Dance With You
DYEAR=1996
DGENRE=Conjunto
TTITLE0=I Wanna Dance With You
TTITLE1=La Charchina
TTITLE2=Preso Sin Delito
TTITLE3=Huapango Leoncito
TTITLE4=Vestida De Color De Rosa
TTITLE5=Donde Estan
TTITLE6=Ingratos Ojos Mios
TTITLE7=Leo's Favorites
TTITLE8=El Corrido De Augustine Jaime
TTITLE9=Se Remata El Jalisco
EXTD=
EXTT0=
EXTT1=
EXTT2=
EXTT3=
EXTT4=
EXTT5=
EXTT6=
EXTT7=
EXTT8=
EXTT9=
PLAYORDER=
